<svg xmlns="http://www.w3.org/2000/svg" width="280.182" height="272.881" viewBox="0 0 280.182 272.881">
  <g id="Groupe_40" data-name="Groupe 40" transform="translate(-11.963 -14)">
    <g id="Groupe_39" data-name="Groupe 39" transform="translate(37.372 45.309)">
      <g id="Groupe_33" data-name="Groupe 33" transform="translate(0 100.672)">
        <path id="Tracé_8" data-name="Tracé 8" d="M18.321,46.982l-.008.012" transform="translate(-18.313 -46.982)"/>
      </g>
      <g id="Groupe_34" data-name="Groupe 34" transform="translate(125.81)">
        <path id="Tracé_9" data-name="Tracé 9" d="M52.21,22.323a2.445,2.445,0,1,1-2.457,2.417A2.435,2.435,0,0,1,52.21,22.323Z" transform="translate(-49.753 -20.326)"/>
        <path id="Tracé_10" data-name="Tracé 10" d="M53.872,21.824l4.718.616c1.741.228,2.781,1.168,2.565,2.785A2.155,2.155,0,0,1,59.5,27.114l0,.024a2.34,2.34,0,0,1,1.5,2.741c-.2,1.525-1.417,2.569-3.934,2.237L52.6,31.532Zm.608,8.547,3.005.392a1.457,1.457,0,0,0,1.833-1.325,1.441,1.441,0,0,0-1.437-1.709l-3.005-.392Zm.556-4.258,2.777.36a1.307,1.307,0,0,0,1.6-1.156c.132-.98-.324-1.4-1.253-1.521l-2.773-.364Z" transform="translate(-41.222 -21.824)"/>
        <path id="Tracé_11" data-name="Tracé 11" d="M58.4,22.459l1.665.4-2.309,9.516-1.669-.4Z" transform="translate(-30.738 -19.918)"/>
        <path id="Tracé_12" data-name="Tracé 12" d="M64.216,30.2c-.564,1.6-1.509,3.057-4.162,2.129-1.953-.684-2.309-2.245-1.717-3.926l.172-.492,1.617.564-.168.48c-.364,1.048-.292,1.757.688,2.1,1.048.364,1.517-.18,1.921-1.333l2.221-6.355,1.617.568Z" transform="translate(-24.768 -17.175)"/>
        <path id="Tracé_13" data-name="Tracé 13" d="M70.18,31.745c-1.253,2.5-3.866,3.8-6.491,2.485s-3.149-4.186-1.9-6.687,3.866-3.8,6.491-2.485S71.432,29.244,70.18,31.745Zm-6.855-3.433c-.84,1.677-.884,3.725.992,4.666s3.489-.32,4.33-2,.888-3.729-.988-4.67S64.166,26.631,63.325,28.312Z" transform="translate(-15.562 -13.682)"/>
        <path id="Tracé_14" data-name="Tracé 14" d="M68.758,26.175l1.413.972-3.241,4.7c-.744,1.084-1.541,2.385.288,3.645s2.761.056,3.505-1.028l3.241-4.7,1.413.972L71.819,35.9c-1.425,2.065-3.453,2.181-5.442.812s-2.6-3.309-1.176-5.374Z" transform="translate(-5.721 -8.764)"/>
        <path id="Tracé_15" data-name="Tracé 15" d="M71.67,28.366l5.894,5.294-.992,1.1-2.313-2.081L68.7,38.862l-1.273-1.144,5.55-6.178-2.3-2.069Z" transform="translate(3.312 -2.188)"/>
        <path id="Tracé_16" data-name="Tracé 16" d="M76.695,30.91l4.634,5.314-1.112.972-3.509-4.022-1.933,1.689,3.245,3.721-1.052.92-3.249-3.721-2.157,1.885,3.569,4.094-1.116.972-4.7-5.386Z" transform="translate(8.955 5.448)"/>
        <path id="Tracé_17" data-name="Tracé 17" d="M79.553,33.7l2.585,3.9c1.184,1.785.968,3.245-.416,4.162a2.381,2.381,0,0,1-2.953.016l-.02.016c.256.536.368,1.5-.924,2.357-.948.628-1.725,1.341-1.853,1.869l-1.012-1.529a2.734,2.734,0,0,1,1.052-1.016c1.5-.992,1.957-1.741,1.084-3.053l-1.4-2.1-3.357,2.229-.948-1.429ZM76.788,37.6l1.553,2.345a1.453,1.453,0,0,0,2.229.528c1.04-.688.8-1.5.3-2.241l-1.541-2.321Z" transform="translate(15.204 13.835)"/>
        <path id="Tracé_18" data-name="Tracé 18" d="M81.935,36.941l.788,1.525-8.687,4.514-.792-1.521Z" transform="translate(20.757 23.551)"/>
        <path id="Tracé_19" data-name="Tracé 19" d="M83.274,39.052l2.589,6.563-1.381.544-1.957-4.97-2.389.944,1.813,4.594-1.3.516-1.813-4.6L76.167,43.7l1.993,5.054-1.377.544-2.625-6.651Z" transform="translate(23.501 29.887)"/>
        <path id="Tracé_20" data-name="Tracé 20" d="M80.794,44.524a2.447,2.447,0,1,1-2.981-1.741A2.437,2.437,0,0,1,80.794,44.524Z" transform="translate(28.969 40.842)"/>
      </g>
      <g id="Groupe_35" data-name="Groupe 35" transform="translate(15.378 133.584)">
        <path id="Tracé_21" data-name="Tracé 21" d="M27.009,57.169a2.444,2.444,0,1,1-2.869-1.913A2.433,2.433,0,0,1,27.009,57.169Z" transform="translate(-22.124 -55.207)"/>
        <path id="Tracé_22" data-name="Tracé 22" d="M31.424,57.722l.78,2.285-6.387,5.026.008.028,8.107.02.768,2.257L25.433,70.5l-.524-1.545,7.151-2.441-.008-.024-8.027-.132-.456-1.337,6.274-5.01-.008-.024-7.151,2.437-.528-1.545Z" transform="translate(-22.156 -47.657)"/>
        <path id="Tracé_23" data-name="Tracé 23" d="M34.046,62.158l.824,1.625L27.844,71.57l-.832-1.637,1.9-1.989-1.765-3.485-2.725.348-.8-1.577Zm-5.53,2.125,1.349,2.669,3.093-3.213-.02-.036Z" transform="translate(-17.768 -34.342)"/>
        <path id="Tracé_24" data-name="Tracé 24" d="M33.615,64.541l2.633,3.866c1.2,1.765,1,3.229-.368,4.166a2.374,2.374,0,0,1-2.949.052l-.024.016c.264.532.388,1.493-.892,2.365a4.44,4.44,0,0,0-1.829,1.9l-1.036-1.521a2.732,2.732,0,0,1,1.044-1.024c1.485-1.012,1.933-1.769,1.044-3.069L29.818,69.2l-3.329,2.269-.964-1.417ZM30.9,68.467l1.581,2.325a1.45,1.45,0,0,0,2.233.5c1.032-.7.78-1.509.28-2.249l-1.569-2.3Z" transform="translate(-12.047 -27.189)"/>
        <path id="Tracé_25" data-name="Tracé 25" d="M36.3,76.178c-2.081,1.873-4.99,2.129-6.955-.052s-1.4-5.046.672-6.919,4.986-2.129,6.951.052S38.373,74.305,36.3,76.178Zm-5.134-5.694c-1.4,1.257-2.185,3.149-.78,4.706s3.369.972,4.766-.284,2.185-3.149.78-4.71S32.559,69.223,31.163,70.484Z" transform="translate(-4.232 -17.67)"/>
        <path id="Tracé_26" data-name="Tracé 26" d="M36.238,82.069,35,82.245l-.288-1.873a4.705,4.705,0,0,1-2.141-1.036c-2.245-1.889-2.085-4.8-.284-6.943s4.646-2.8,6.891-.9,2.089,4.8.284,6.943a5.243,5.243,0,0,1-3.477,1.981ZM34.261,77.5l1.236-.2.244,1.569a4.208,4.208,0,0,0,2.4-1.541c1.212-1.437,1.733-3.417.128-4.77s-3.469-.5-4.678.936-1.733,3.417-.128,4.77a2.618,2.618,0,0,0,.988.528Z" transform="translate(4.118 -9.683)"/>
        <path id="Tracé_27" data-name="Tracé 27" d="M38.04,72.3l1.449.916-3.053,4.818c-.7,1.112-1.449,2.441.428,3.629s2.757-.052,3.461-1.164l3.053-4.818,1.445.916-3.349,5.29c-1.345,2.117-3.365,2.313-5.4,1.024s-2.725-3.2-1.385-5.322Z" transform="translate(13.381 -3.9)"/>
        <path id="Tracé_28" data-name="Tracé 28" d="M41.376,74.123l1.533.76-4.342,8.771-1.537-.76Z" transform="translate(22.49 1.572)"/>
        <path id="Tracé_29" data-name="Tracé 29" d="M42.515,74.99l1.7.624L45.9,83.934l.028.008,2.5-6.767,1.529.568-3.4,9.184-1.7-.628L43.184,78l-.04-.016-2.5,6.755-1.529-.564Z" transform="translate(28.757 4.175)"/>
        <path id="Tracé_30" data-name="Tracé 30" d="M45,76.123,51.868,77.7l-.332,1.445-5.2-1.192-.572,2.5,4.81,1.1-.316,1.365-4.806-1.1L44.809,84.6l5.29,1.212-.328,1.445-6.963-1.6Z" transform="translate(39.833 7.575)"/>
        <path id="Tracé_31" data-name="Tracé 31" d="M47.249,76.756l4.654.452c2.129.212,3.125,1.3,2.961,2.949a2.368,2.368,0,0,1-1.849,2.3v.028c.576.14,1.393.66,1.244,2.2a4.442,4.442,0,0,0,.28,2.613l-1.829-.176a2.771,2.771,0,0,1-.12-1.457c.176-1.789-.116-2.617-1.685-2.769L48.4,82.65l-.392,4.01L46.3,86.5Zm1.273,4.6,2.8.276a1.452,1.452,0,0,0,1.817-1.393c.124-1.244-.66-1.565-1.545-1.653l-2.769-.272Z" transform="translate(50.317 9.475)"/>
        <path id="Tracé_32" data-name="Tracé 32" d="M50.047,76.987l1.713-.012.06,9.788-1.717.012Z" transform="translate(61.561 10.133)"/>
        <path id="Tracé_33" data-name="Tracé 33" d="M52.089,77.56l6.995-.844.176,1.469-5.29.64.308,2.545,4.9-.592.168,1.385-4.9.6L54.79,85.6l5.39-.652.176,1.469-7.091.86Z" transform="translate(67.69 9.355)"/>
        <path id="Tracé_34" data-name="Tracé 34" d="M57.474,76.987a2.446,2.446,0,1,1-1.857,2.905A2.436,2.436,0,0,1,57.474,76.987Z" transform="translate(78.104 9.989)"/>
      </g>
      <g id="Groupe_38" data-name="Groupe 38" transform="translate(58.035 80.429)">
        <g id="Groupe_36" data-name="Groupe 36" transform="translate(0.002 0.001)">
          <path id="Tracé_35" data-name="Tracé 35" d="M36.943,41.924H32.816V78.738H57.181V75.117H36.943Z" transform="translate(-32.816 -41.924)"/>
          <path id="Tracé_36" data-name="Tracé 36" d="M58.086,58.485a16.3,16.3,0,0,1-.444,3.79,10.284,10.284,0,0,1-1.369,3.257,7.236,7.236,0,0,1-2.321,2.249,6.42,6.42,0,0,1-3.365.836c-2.413,0-4.122-.572-5.078-1.7a8.226,8.226,0,0,1-1.565-5.142V44.427h-3.87V61.722a15.911,15.911,0,0,0,.516,4.242,8.235,8.235,0,0,0,1.665,3.217,7.388,7.388,0,0,0,2.969,2.045,12.006,12.006,0,0,0,4.35.708,10.827,10.827,0,0,0,5.51-1.441,9.305,9.305,0,0,0,3.257-3.165v3.9H61.96v-26.8H58.086Z" transform="translate(-11.029 -34.41)"/>
          <rect id="Rectangle_42" data-name="Rectangle 42" width="3.874" height="36.814" transform="translate(58.847)"/>
          <path id="Tracé_37" data-name="Tracé 37" d="M68.48,44.427V58.485a16.3,16.3,0,0,1-.444,3.79,10.382,10.382,0,0,1-1.373,3.257,7.184,7.184,0,0,1-2.317,2.249,6.42,6.42,0,0,1-3.365.836c-2.413,0-4.122-.572-5.078-1.7a8.226,8.226,0,0,1-1.565-5.142V44.427h-3.87V61.722a15.911,15.911,0,0,0,.516,4.242,8.235,8.235,0,0,0,1.665,3.217,7.388,7.388,0,0,0,2.969,2.045,12.006,12.006,0,0,0,4.35.708,10.827,10.827,0,0,0,5.51-1.441,9.261,9.261,0,0,0,3.253-3.165v3.9h3.621v-26.8Z" transform="translate(20.169 -34.41)"/>
        </g>
        <g id="Groupe_37" data-name="Groupe 37" transform="translate(0 50.359)">
          <path id="Tracé_38" data-name="Tracé 38" d="M32.816,70.783V54.605H39.8A6.99,6.99,0,0,1,45.033,56.6,8.125,8.125,0,0,1,47.142,62.6a8.838,8.838,0,0,1-1.813,5.846,6.8,6.8,0,0,1-5.53,2.333Zm3.557-13.189v10.2h3.177a3.735,3.735,0,0,0,2.785-1.088,5.16,5.16,0,0,0,1.248-3.762,6.3,6.3,0,0,0-1-3.9,4.363,4.363,0,0,0-3.669-1.453Z" transform="translate(-32.816 -54.217)"/>
          <path id="Tracé_39" data-name="Tracé 39" d="M38.174,70.783V54.605h12.1v2.989H41.731v3.469h7.843v2.765H41.731v3.966h8.727v2.989Z" transform="translate(-16.734 -54.217)"/>
          <path id="Tracé_40" data-name="Tracé 40" d="M43.005,70.783V54.605H50.62q5.168,0,5.166,4.01a3.536,3.536,0,0,1-2.2,3.377,3.845,3.845,0,0,1,2.969,4.1,4.151,4.151,0,0,1-1.769,3.581,6.579,6.579,0,0,1-3.942,1.108ZM46.562,57.37v3.782h3.605q2.173,0,2.173-1.925c0-1.24-.812-1.857-2.445-1.857Zm0,6.206v4.442h3.81Q53,68.018,53,65.889q0-2.311-2.561-2.313Z" transform="translate(-2.233 -54.217)"/>
          <path id="Tracé_41" data-name="Tracé 41" d="M47.978,63.055a8.763,8.763,0,0,1,2.109-6.074,7.39,7.39,0,0,1,5.846-2.473,7.39,7.39,0,0,1,5.846,2.473,8.763,8.763,0,0,1,2.109,6.074,8.555,8.555,0,0,1-2.109,5.958,7.47,7.47,0,0,1-5.846,2.449,7.47,7.47,0,0,1-5.846-2.449A8.555,8.555,0,0,1,47.978,63.055Zm3.557,0a6.415,6.415,0,0,0,1,3.713,4.248,4.248,0,0,0,6.8,0,6.415,6.415,0,0,0,1-3.713,6.724,6.724,0,0,0-1-3.834,4.218,4.218,0,0,0-6.8,0A6.724,6.724,0,0,0,51.535,63.055Z" transform="translate(12.694 -54.508)"/>
          <path id="Tracé_42" data-name="Tracé 42" d="M53.721,70.783V54.605h8.723a4.74,4.74,0,0,1,3.469,1.313,4.287,4.287,0,0,1,1.268,3.149,3.977,3.977,0,0,1-2.561,4.058v.044q2.131.546,2.357,3.786l.136,1.949a4.046,4.046,0,0,0,.544,1.881H64.1a7.218,7.218,0,0,1-.388-1.833l-.18-2.041a3.1,3.1,0,0,0-.78-1.881,2.717,2.717,0,0,0-1.917-.568H57.278v6.322ZM57.278,57.37v4.554h3.9q2.449,0,2.449-2.313c0-1.5-.816-2.241-2.449-2.241Z" transform="translate(29.932 -54.217)"/>
          <path id="Tracé_43" data-name="Tracé 43" d="M58.54,70.783l6.142-16.178h3.649l6.05,16.178H70.689l-1.224-3.6h-6.05l-1.268,3.6Zm7.911-12.193-2.109,5.938h4.194L66.5,58.591Z" transform="translate(44.397 -54.217)"/>
          <path id="Tracé_44" data-name="Tracé 44" d="M64.011,70.783V54.605h3.557v6.206h6.551V54.605h3.557V70.783H74.119V63.8H67.568v6.979Z" transform="translate(60.818 -54.217)"/>
        </g>
        <path id="Tracé_45" data-name="Tracé 45" d="M82.585,71.538a20.5,20.5,0,0,0,1.1-3.225,15.583,15.583,0,0,0,.364-4l-.008-.328H82.349l.016.352a12.065,12.065,0,0,1-.292,3.537,17.5,17.5,0,0,1-.672,2.153l-8.92-11.3c.724-.536,1.509-1.092,2.333-1.653a18.8,18.8,0,0,0,2.621-2.133,11.624,11.624,0,0,0,2-2.6,6.76,6.76,0,0,0,.828-3.369,6.982,6.982,0,0,0-.616-2.993,6.453,6.453,0,0,0-1.677-2.209,7.5,7.5,0,0,0-2.457-1.377,9.463,9.463,0,0,0-5.734-.052,7.6,7.6,0,0,0-2.453,1.269,6.527,6.527,0,0,0-1.785,2.181,6.836,6.836,0,0,0-.692,3.181,6.414,6.414,0,0,0,.584,2.637,14.719,14.719,0,0,0,1.421,2.477c.552.792,1.144,1.581,1.753,2.341.52.648,1,1.285,1.445,1.889q-1.477.93-3.033,1.961a20.261,20.261,0,0,0-3.181,2.593,13.146,13.146,0,0,0-2.385,3.237,8.807,8.807,0,0,0-.944,4.118,8.037,8.037,0,0,0,.948,3.926,9.615,9.615,0,0,0,2.437,2.877,10.884,10.884,0,0,0,3.409,1.8,12.454,12.454,0,0,0,3.838.62,11.135,11.135,0,0,0,6.635-1.929A14.212,14.212,0,0,0,81.736,73.2l4.286,5.442h2.169ZM71.068,59.669,80.64,71.682A12.586,12.586,0,0,1,77,76.064a9.535,9.535,0,0,1-5.858,1.749,11.629,11.629,0,0,1-3.309-.488,8.612,8.612,0,0,1-2.865-1.457,7.636,7.636,0,0,1-2.009-2.4,6.727,6.727,0,0,1-.764-3.245,7.345,7.345,0,0,1,.84-3.573,11.4,11.4,0,0,1,2.181-2.821,20.663,20.663,0,0,1,2.957-2.309C69.171,60.878,70.136,60.257,71.068,59.669Zm-4.538-10.8A4.822,4.822,0,0,1,68.3,45.019a5.869,5.869,0,0,1,1.933-1.052,7.627,7.627,0,0,1,2.369-.36,6.764,6.764,0,0,1,2.285.384,6.332,6.332,0,0,1,1.917,1.076,4.889,4.889,0,0,1,1.3,1.681,5.139,5.139,0,0,1,.472,2.225,5.2,5.2,0,0,1-.736,2.705,11,11,0,0,1-1.861,2.329,20.462,20.462,0,0,1-2.4,1.961c-.772.528-1.477,1.024-2.113,1.481-.824-1.072-1.541-2.009-2.149-2.821-.648-.864-1.184-1.645-1.6-2.321a9.978,9.978,0,0,1-.9-1.829h0A4.813,4.813,0,0,1,66.53,48.873Z" transform="translate(50.304 -41.923)"/>
      </g>
    </g>
    <path id="Tracé_46" data-name="Tracé 46" d="M40.286,149.806c.312-4.622.676-7.2.844-8.315.336-2.209.664-3.77.892-4.77.336-1.477.68-2.737.972-3.725a3.427,3.427,0,0,0,.22.588c3.353,7.023,19.092-6.755,21.168-9.964a.681.681,0,0,0,.156-.448c-.052-.364-.56-.412-.924-.36-2.625.38-15.438,2.593-19.5,6.731a76.764,76.764,0,0,1,3.6-8.643,94.452,94.452,0,0,1,5.222-9.16,6.064,6.064,0,0,0,3.789,2.949c6.114,2.133,13.233,1.216,18.127.072,7.059-1.653,13.641-4.87,19.78-8.019,3.313-1.7,6.719-3.509,9.972-5.578a54.273,54.273,0,0,0,6.959-5.174,2.545,2.545,0,0,0,1.04-2.669,2.6,2.6,0,0,0-2.217-1.761,65.322,65.322,0,0,0-19.708-1.132,68.661,68.661,0,0,0-29.644,9.8q1.687-2.245,3.373-4.458c2.857-3.758,5.814-7.643,8.559-11.585a110.442,110.442,0,0,0,7.555-12.429h0c1.5,1.393,4.1,1.365,6.771-.076q4.574-2.461,8.92-5.226a140.016,140.016,0,0,0,31.364-27.231,1.52,1.52,0,0,0,.356-1.088,2.646,2.646,0,0,0-1.3-2.129,5.558,5.558,0,0,0-4.666-.016A113.55,113.55,0,0,0,92.594,53.728c-.692.58-1.493,1.212-2.345,1.885-1.485,1.172-3.113,2.465-4.65,3.83a47.6,47.6,0,0,0,2.065-17.627C86.892,32.18,82.706,23,79.013,14.889a1.54,1.54,0,0,0-2.517-.4c-12.449,13.221-13.625,35.67-2.621,50.048a10.437,10.437,0,0,0,4.9,3.926A104.353,104.353,0,0,1,70.446,82.48c-1.921,2.753-3.95,5.47-5.982,8.163l.028-.224c.4-3.2,1.457-6.29,1.561-9.528.172-5.394-2.325-10.6-5.806-14.742s-7.919-7.395-12.309-10.6q-5.51-4.022-11.028-8.047c-2.017,1.657-2.057,4.69-1.581,7.235,1.132,6.074,4.162,11.649,7.667,16.759a93.508,93.508,0,0,0,15.03,17.015A30.916,30.916,0,0,0,62.4,92.163c.248.144.46.26.644.352-.36.476-.728.968-1.088,1.441-4.314,5.67-8.715,11.485-12.541,17.655a24.948,24.948,0,0,0-1.256-5.342A24.358,24.358,0,0,0,40.87,95.7c-7.7-6.435-17.967-7.819-25.222-7.847a3.818,3.818,0,0,0-2.929.984c-.728.772-1.3,2.193.1,4.562l7.563,12.765a40.624,40.624,0,0,0,5.254,7.507c2.777,2.933,10.044,7.175,15.914,7.171a9.994,9.994,0,0,0,3.021-.448,80.5,80.5,0,0,0-6.042,19.668,91.571,91.571,0,0,0-1.036,9.484c-.552,8.279-.22,6.567-.328,9.848A127.488,127.488,0,1,0,164.655,31.908a1.371,1.371,0,0,0,0,2.741,124.745,124.745,0,1,1,0,249.491c-68.783,0-124.593-56.058-124.593-124.841C40.106,155.448,40.118,152.3,40.286,149.806Zm1.272-31.989c-4.826,0-11.22-3.617-13.681-6.214a38.4,38.4,0,0,1-4.846-6.967l-5.4-9.124A123.774,123.774,0,0,0,30.266,109.1c3.389,3.137,7.471,6.543,12.309,8.643A8.152,8.152,0,0,1,41.558,117.818ZM30.79,108.55A123.342,123.342,0,0,1,15.084,90.935c6.331,1.365,12.473,5.246,18.747,11.841a47.3,47.3,0,0,1,6.479,9.568c.9,1.609,1.837,3.257,2.849,4.846C38.3,115.149,34.2,111.7,30.79,108.55Zm13.377,8.755c-1.14-1.725-2.185-3.549-3.189-5.33a47.806,47.806,0,0,0-6.591-9.72c-5.518-5.8-10.956-9.508-16.519-11.32a48.524,48.524,0,0,1,7.1.836,42.862,42.862,0,0,1,20.092,25A4.212,4.212,0,0,1,44.167,117.305Zm1.517-1.136a43.751,43.751,0,0,0-18.3-23.845,29.478,29.478,0,0,1,11.5,5.69,21.305,21.305,0,0,1,6.375,9.236C46.7,111.387,46.836,114.672,45.684,116.169ZM110.057,93.04l-.076,1.549a.649.649,0,0,1-.22-.216Zm-1.22,1.293c-4.638,3.946-10.036,6.855-15.618,9.724-5.962,3.065-12.349,6.186-19.068,7.759-4.494,1.052-10.988,1.909-16.4.02-.92-.32-2.037-.876-2.149-1.721a1.565,1.565,0,0,1,.02-.38,11.538,11.538,0,0,0,8.647,1.176c8.179-1.953,16.078-5.138,23.717-8.215a71.657,71.657,0,0,0,9.852-5.118c2.229-1.313,4.518-2.661,7.063-3.878C106.22,93.872,107.536,94.072,108.837,94.332Zm-5.33-.784c-2.149,1.084-4.13,2.241-6.058,3.381A71.616,71.616,0,0,1,87.7,102c-7.611,3.065-15.482,6.238-23.609,8.183a10.783,10.783,0,0,1-8.263-1.2,5.874,5.874,0,0,1,.632-1.08A149.608,149.608,0,0,1,101.334,93.36C102.062,93.412,102.786,93.472,103.507,93.548Zm-41.753,9.808a65.714,65.714,0,0,1,29.2-9.916,65.023,65.023,0,0,1,6.707-.228A150.625,150.625,0,0,0,57.729,106.4a15.756,15.756,0,0,1,2.233-1.857Q60.85,103.934,61.754,103.356Zm22.857-61.3a44.682,44.682,0,0,1-1.945,16.463c-.32-9.4-.524-18.871-.62-28.291A50.006,50.006,0,0,1,84.611,42.06ZM76.32,62.7c-7.443-9.724-8.84-23.445-4.53-34.886a62.211,62.211,0,0,0-.88,11.793,54.681,54.681,0,0,0,2.613,14.058,84.671,84.671,0,0,0,4.01,10.448A14.4,14.4,0,0,1,76.32,62.7Zm3.874,2.625c-.048.112-.084.22-.132.332a3.763,3.763,0,0,1-1.18-.464,84.942,84.942,0,0,1-4.626-11.749,54.092,54.092,0,0,1-2.581-13.865A71.494,71.494,0,0,1,73.039,24.9a33.743,33.743,0,0,1,3.345-5.538c.592,3.733,1.16,7.559,1.421,11.36.144,2.141.2,4.326.244,6.439.076,3.077.148,6.262.516,9.384.168,1.445.38,2.941.592,4.466C79.829,55.805,80.514,60.735,80.193,65.329Zm.832-2.049A85.02,85.02,0,0,0,79.913,50.9c-.212-1.517-.42-3.005-.588-4.45-.364-3.081-.436-6.25-.508-9.312-.052-2.121-.1-4.314-.248-6.467-.276-4.082-.9-8.167-1.541-12.145.06-.076.116-.152.176-.228,1.441,3.185,2.845,6.423,4.058,9.712.084,10.868.324,21.833.708,32.677C81.678,61.543,81.366,62.408,81.026,63.28Zm4.806,5.746c-1.649.888-2.869.84-3.209.524a.528.528,0,0,1-.108-.212A280.41,280.41,0,0,1,114.239,46.2l.612-.384a54.732,54.732,0,0,0,7.5-5.314A137.2,137.2,0,0,1,85.832,69.026Zm28.611-23.853-.612.384A282.74,282.74,0,0,0,82.55,68.318a5.556,5.556,0,0,1,.384-1.092c1.481-3.141,5.774-6.531,9.224-9.252.876-.688,1.7-1.337,2.409-1.933a110.814,110.814,0,0,1,11.493-8.387,109.7,109.7,0,0,1,16.9-8.787A45.979,45.979,0,0,1,114.443,45.173Z" transform="translate(0 0)"/>
  </g>
</svg>
